# xmcd
#
# Track frame offsets:
#	150
#	13075
#	48210
#	62945
#	76280
#	94325
#	121240
#	132757
#	160382
#	186900
#	200400
#	219495
#	233897
#	244897
#
# Disc length: 3531 seconds
#
# Revision: 1
# Processed by: cddbd v1.4PL0 Copyright (c) Steve Scherf et al.
# Submitted via: audiograbber 1.80
#
DISCID=c30dc90e
DTITLE=Various Artist - The Wonderful World of Mr. Casino Steel
DYEAR=1900
DGENRE=
TTITLE0=The Hollywood Brats - Little Ol' Winedrinker Me
TTITLE1=The Boys - You Can't Hurt A Memory
TTITLE2=Gary Holton - Casino Steel - Ruby
TTITLE3=Claudia - Big Hand - Casino - Cajun Invitation
TTITLE4=CCCP - Strange Brew
TTITLE5=Scott and Steel - The Ballad Of The sad Cafe
TTITLE6=Casino Steel and the Bandits - Blowing the Dust off the Angels Wings
TTITLE7=The Hollywood Brats - Suckin' On Suzie
TTITLE8=The Boys - Independent Girl
TTITLE9=Gary Holton - Casino Steel - Ghostriders
TTITLE10=Claudia - Big Hand - Casino - Honky Tonk Night
TTITLE11=Scott and Steel - This Ain't America
TTITLE12=Casino Steel and the Bandits - Little Rebel
TTITLE13=Claudia - Big Hand - Casino - Gotta Serve Somebody
EXTD=
EXTT0=
EXTT1=
EXTT2=
EXTT3=
EXTT4=
EXTT5=
EXTT6=
EXTT7=
EXTT8=
EXTT9=
EXTT10=
EXTT11=
EXTT12=
EXTT13=
PLAYORDER=
